<svg width="28" height="28" viewBox="0 0 28 28" fill="none" xmlns="http://www.w3.org/2000/svg">
<path fill-rule="evenodd" clip-rule="evenodd" d="M4.86675 3C5.45022 3 6.0098 3.23178 6.42238 3.64437C6.83496 4.05694 7.06675 4.61652 7.06675 5.2C7.06675 5.78348 6.83496 6.34306 6.42238 6.75564C6.0098 7.16822 5.45022 7.4 4.86675 7.4C4.28327 7.4 3.72369 7.16822 3.31111 6.75564C2.89853 6.34306 2.66675 5.78348 2.66675 5.2C2.66675 4.61652 2.89853 4.05694 3.31111 3.64437C3.72369 3.23178 4.28327 3 4.86675 3ZM13.6667 3C14.2502 3 14.8098 3.23178 15.2224 3.64437C15.635 4.05694 15.8667 4.61652 15.8667 5.2C15.8667 5.78348 15.635 6.34306 15.2224 6.75564C14.8098 7.16822 14.2502 7.4 13.6667 7.4C13.0833 7.4 12.5237 7.16822 12.1111 6.75564C11.6985 6.34306 11.4667 5.78348 11.4667 5.2C11.4667 4.61652 11.6985 4.05694 12.1111 3.64437C12.5237 3.23178 13.0833 3 13.6667 3ZM24.6667 5.2C24.6667 4.61652 24.435 4.05694 24.0224 3.64437C23.6098 3.23178 23.0502 3 22.4667 3C21.8833 3 21.3237 3.23178 20.9111 3.64437C20.4985 4.05694 20.2667 4.61652 20.2667 5.2C20.2667 5.78348 20.4985 6.34306 20.9111 6.75564C21.3237 7.16822 21.8833 7.4 22.4667 7.4C23.0502 7.4 23.6098 7.16822 24.0224 6.75564C24.435 6.34306 24.6667 5.78348 24.6667 5.2ZM4.86675 11.8C5.45022 11.8 6.0098 12.0318 6.42238 12.4444C6.83496 12.8569 7.06675 13.4165 7.06675 14C7.06675 14.5835 6.83496 15.1431 6.42238 15.5556C6.0098 15.9682 5.45022 16.2 4.86675 16.2C4.28327 16.2 3.72369 15.9682 3.31111 15.5556C2.89853 15.1431 2.66675 14.5835 2.66675 14C2.66675 13.4165 2.89853 12.8569 3.31111 12.4444C3.72369 12.0318 4.28327 11.8 4.86675 11.8ZM15.8667 14C15.8667 13.4165 15.635 12.8569 15.2224 12.4444C14.8098 12.0318 14.2502 11.8 13.6667 11.8C13.0833 11.8 12.5237 12.0318 12.1111 12.4444C11.6985 12.8569 11.4667 13.4165 11.4667 14C11.4667 14.5835 11.6985 15.1431 12.1111 15.5556C12.5237 15.9682 13.0833 16.2 13.6667 16.2C14.2502 16.2 14.8098 15.9682 15.2224 15.5556C15.635 15.1431 15.8667 14.5835 15.8667 14ZM22.4667 11.8C23.0502 11.8 23.6098 12.0318 24.0224 12.4444C24.435 12.8569 24.6667 13.4165 24.6667 14C24.6667 14.5835 24.435 15.1431 24.0224 15.5556C23.6098 15.9682 23.0502 16.2 22.4667 16.2C21.8833 16.2 21.3237 15.9682 20.9111 15.5556C20.4985 15.1431 20.2667 14.5835 20.2667 14C20.2667 13.4165 20.4985 12.8569 20.9111 12.4444C21.3237 12.0318 21.8833 11.8 22.4667 11.8ZM7.06675 22.8C7.06675 22.2165 6.83496 21.6569 6.42238 21.2444C6.0098 20.8318 5.45022 20.6 4.86675 20.6C4.28327 20.6 3.72369 20.8318 3.31111 21.2444C2.89853 21.6569 2.66675 22.2165 2.66675 22.8C2.66675 23.3835 2.89853 23.9431 3.31111 24.3556C3.72369 24.7682 4.28327 25 4.86675 25C5.45022 25 6.0098 24.7682 6.42238 24.3556C6.83496 23.9431 7.06675 23.3835 7.06675 22.8ZM13.6667 20.6C14.2502 20.6 14.8098 20.8318 15.2224 21.2444C15.635 21.6569 15.8667 22.2165 15.8667 22.8C15.8667 23.3835 15.635 23.9431 15.2224 24.3556C14.8098 24.7682 14.2502 25 13.6667 25C13.0833 25 12.5237 24.7682 12.1111 24.3556C11.6985 23.9431 11.4667 23.3835 11.4667 22.8C11.4667 22.2165 11.6985 21.6569 12.1111 21.2444C12.5237 20.8318 13.0833 20.6 13.6667 20.6ZM24.6667 22.8C24.6667 22.2165 24.435 21.6569 24.0224 21.2444C23.6098 20.8318 23.0502 20.6 22.4667 20.6C21.8833 20.6 21.3237 20.8318 20.9111 21.2444C20.4985 21.6569 20.2667 22.2165 20.2667 22.8C20.2667 23.3835 20.4985 23.9431 20.9111 24.3556C21.3237 24.7682 21.8833 25 22.4667 25C23.0502 25 23.6098 24.7682 24.0224 24.3556C24.435 23.9431 24.6667 23.3835 24.6667 22.8Z" fill="#6C7A92"/>
</svg>
