<svg width="28" height="28" viewBox="0 0 28 28" fill="none" xmlns="http://www.w3.org/2000/svg">
<g clip-path="url(#clip0_617_2521)">
<path d="M14.8248 2.67508L25.3248 13.1751C26.0598 13.9101 25.5395 15.1666 24.5 15.1666H23.3333V22.1666C23.3333 23.0948 22.9646 23.9851 22.3082 24.6415C21.6518 25.2978 20.7616 25.6666 19.8333 25.6666H18.6667V17.4999C18.6667 16.6072 18.3256 15.7481 17.7132 15.0986C17.1007 14.4491 16.2632 14.0581 15.372 14.0057L15.1667 13.9999H12.8333C11.9051 13.9999 11.0148 14.3687 10.3585 15.025C9.70209 15.6814 9.33334 16.5717 9.33334 17.4999V25.6666H8.16667C7.23841 25.6666 6.34818 25.2978 5.6918 24.6415C5.03542 23.9851 4.66667 23.0948 4.66667 22.1666V15.1666H3.5C2.46167 15.1666 1.94017 13.9101 2.67517 13.1751L13.1752 2.67508C13.394 2.45636 13.6906 2.3335 14 2.3335C14.3094 2.3335 14.6061 2.45636 14.8248 2.67508ZM15.1667 16.3332C15.4761 16.3332 15.7728 16.4562 15.9916 16.675C16.2104 16.8937 16.3333 17.1905 16.3333 17.4999V25.6666H11.6667V17.4999C11.6667 17.2142 11.7716 16.9384 11.9615 16.7248C12.1514 16.5113 12.413 16.3748 12.6968 16.3414L12.8333 16.3332H15.1667Z" fill="#1B457C"/>
</g>
<defs>
<clipPath id="clip0_617_2521">
<rect width="28" height="28" fill="white"/>
</clipPath>
</defs>
</svg>
