<svg width="44" height="44" viewBox="0 0 44 44" fill="none" xmlns="http://www.w3.org/2000/svg">
<path d="M0 14C0 6.26801 6.26801 0 14 0H30C37.732 0 44 6.26801 44 14V30C44 37.732 37.732 44 30 44H14C6.26801 44 0 37.732 0 30V14Z" fill="#DCFCE7"/>
<path d="M20.4121 30.25C20.573 30.5287 20.8045 30.7601 21.0831 30.921C21.3618 31.0819 21.678 31.1666 21.9998 31.1666C22.3216 31.1666 22.6377 31.0819 22.9164 30.921C23.1951 30.7601 23.4265 30.5287 23.5874 30.25" stroke="#16A34A" stroke-width="1.83333" stroke-linecap="round" stroke-linejoin="round"/>
<path d="M13.9905 25.049C13.8707 25.1802 13.7917 25.3435 13.763 25.5188C13.7343 25.6941 13.7572 25.874 13.8289 26.0366C13.9005 26.1992 14.0179 26.3374 14.1667 26.4345C14.3155 26.5316 14.4893 26.5834 14.667 26.5835H29.3336C29.5113 26.5836 29.6851 26.532 29.834 26.4351C29.9829 26.3382 30.1004 26.2001 30.1723 26.0376C30.2441 25.8752 30.2673 25.6953 30.2388 25.52C30.2103 25.3446 30.1315 25.1813 30.012 25.0499C28.7928 23.7932 27.5003 22.4576 27.5003 18.3335C27.5003 16.8748 26.9208 15.4759 25.8894 14.4444C24.8579 13.413 23.459 12.8335 22.0003 12.8335C20.5416 12.8335 19.1427 13.413 18.1112 14.4444C17.0798 15.4759 16.5003 16.8748 16.5003 18.3335C16.5003 22.4576 15.2069 23.7932 13.9905 25.049Z" stroke="#16A34A" stroke-width="1.83333" stroke-linecap="round" stroke-linejoin="round"/>
</svg>
