<svg width="28" height="28" viewBox="0 0 28 28" fill="none" xmlns="http://www.w3.org/2000/svg">
<path d="M4.66675 20.9997C4.66675 19.762 5.15841 18.575 6.03358 17.6998C6.90875 16.8247 8.09574 16.333 9.33341 16.333H18.6667C19.9044 16.333 21.0914 16.8247 21.9666 17.6998C22.8417 18.575 23.3334 19.762 23.3334 20.9997C23.3334 21.6185 23.0876 22.212 22.65 22.6496C22.2124 23.0872 21.6189 23.333 21.0001 23.333H7.00008C6.38124 23.333 5.78775 23.0872 5.35017 22.6496C4.91258 22.212 4.66675 21.6185 4.66675 20.9997Z" stroke="#6C7A92" stroke-width="1.5" stroke-linejoin="round"/>
<path d="M14 11.6665C15.933 11.6665 17.5 10.0995 17.5 8.1665C17.5 6.23351 15.933 4.6665 14 4.6665C12.067 4.6665 10.5 6.23351 10.5 8.1665C10.5 10.0995 12.067 11.6665 14 11.6665Z" stroke="#6C7A92" stroke-width="1.5"/>
</svg>
