<svg width="40" height="36" viewBox="0 0 40 36" fill="none" xmlns="http://www.w3.org/2000/svg">
<path fill-rule="evenodd" clip-rule="evenodd" d="M10.8667 7C11.4502 7 12.0098 7.23178 12.4224 7.64437C12.835 8.05694 13.0667 8.61652 13.0667 9.2C13.0667 9.78348 12.835 10.3431 12.4224 10.7556C12.0098 11.1682 11.4502 11.4 10.8667 11.4C10.2833 11.4 9.72369 11.1682 9.31111 10.7556C8.89853 10.3431 8.66675 9.78348 8.66675 9.2C8.66675 8.61652 8.89853 8.05694 9.31111 7.64437C9.72369 7.23178 10.2833 7 10.8667 7ZM19.6667 7C20.2502 7 20.8098 7.23178 21.2224 7.64437C21.635 8.05694 21.8667 8.61652 21.8667 9.2C21.8667 9.78348 21.635 10.3431 21.2224 10.7556C20.8098 11.1682 20.2502 11.4 19.6667 11.4C19.0833 11.4 18.5237 11.1682 18.1111 10.7556C17.6985 10.3431 17.4667 9.78348 17.4667 9.2C17.4667 8.61652 17.6985 8.05694 18.1111 7.64437C18.5237 7.23178 19.0833 7 19.6667 7ZM30.6667 9.2C30.6667 8.61652 30.435 8.05694 30.0224 7.64437C29.6098 7.23178 29.0502 7 28.4667 7C27.8833 7 27.3237 7.23178 26.9111 7.64437C26.4985 8.05694 26.2667 8.61652 26.2667 9.2C26.2667 9.78348 26.4985 10.3431 26.9111 10.7556C27.3237 11.1682 27.8833 11.4 28.4667 11.4C29.0502 11.4 29.6098 11.1682 30.0224 10.7556C30.435 10.3431 30.6667 9.78348 30.6667 9.2ZM10.8667 15.8C11.4502 15.8 12.0098 16.0318 12.4224 16.4444C12.835 16.8569 13.0667 17.4165 13.0667 18C13.0667 18.5835 12.835 19.1431 12.4224 19.5556C12.0098 19.9682 11.4502 20.2 10.8667 20.2C10.2833 20.2 9.72369 19.9682 9.31111 19.5556C8.89853 19.1431 8.66675 18.5835 8.66675 18C8.66675 17.4165 8.89853 16.8569 9.31111 16.4444C9.72369 16.0318 10.2833 15.8 10.8667 15.8ZM21.8667 18C21.8667 17.4165 21.635 16.8569 21.2224 16.4444C20.8098 16.0318 20.2502 15.8 19.6667 15.8C19.0833 15.8 18.5237 16.0318 18.1111 16.4444C17.6985 16.8569 17.4667 17.4165 17.4667 18C17.4667 18.5835 17.6985 19.1431 18.1111 19.5556C18.5237 19.9682 19.0833 20.2 19.6667 20.2C20.2502 20.2 20.8098 19.9682 21.2224 19.5556C21.635 19.1431 21.8667 18.5835 21.8667 18ZM28.4667 15.8C29.0502 15.8 29.6098 16.0318 30.0224 16.4444C30.435 16.8569 30.6667 17.4165 30.6667 18C30.6667 18.5835 30.435 19.1431 30.0224 19.5556C29.6098 19.9682 29.0502 20.2 28.4667 20.2C27.8833 20.2 27.3237 19.9682 26.9111 19.5556C26.4985 19.1431 26.2667 18.5835 26.2667 18C26.2667 17.4165 26.4985 16.8569 26.9111 16.4444C27.3237 16.0318 27.8833 15.8 28.4667 15.8ZM13.0667 26.8C13.0667 26.2165 12.835 25.6569 12.4224 25.2444C12.0098 24.8318 11.4502 24.6 10.8667 24.6C10.2833 24.6 9.72369 24.8318 9.31111 25.2444C8.89853 25.6569 8.66675 26.2165 8.66675 26.8C8.66675 27.3835 8.89853 27.9431 9.31111 28.3556C9.72369 28.7682 10.2833 29 10.8667 29C11.4502 29 12.0098 28.7682 12.4224 28.3556C12.835 27.9431 13.0667 27.3835 13.0667 26.8ZM19.6667 24.6C20.2502 24.6 20.8098 24.8318 21.2224 25.2444C21.635 25.6569 21.8667 26.2165 21.8667 26.8C21.8667 27.3835 21.635 27.9431 21.2224 28.3556C20.8098 28.7682 20.2502 29 19.6667 29C19.0833 29 18.5237 28.7682 18.1111 28.3556C17.6985 27.9431 17.4667 27.3835 17.4667 26.8C17.4667 26.2165 17.6985 25.6569 18.1111 25.2444C18.5237 24.8318 19.0833 24.6 19.6667 24.6ZM30.6667 26.8C30.6667 26.2165 30.435 25.6569 30.0224 25.2444C29.6098 24.8318 29.0502 24.6 28.4667 24.6C27.8833 24.6 27.3237 24.8318 26.9111 25.2444C26.4985 25.6569 26.2667 26.2165 26.2667 26.8C26.2667 27.3835 26.4985 27.9431 26.9111 28.3556C27.3237 28.7682 27.8833 29 28.4667 29C29.0502 29 29.6098 28.7682 30.0224 28.3556C30.435 27.9431 30.6667 27.3835 30.6667 26.8Z" fill="#6C7A92"/>
</svg>
