<svg width="21" height="24" viewBox="0 0 21 24" fill="none" xmlns="http://www.w3.org/2000/svg">
<path d="M19.2139 20.9986C18.1397 22.4865 17.0008 23.9384 15.2665 23.9624C13.5322 23.9984 12.9756 23.0145 11.0084 23.0145C9.02817 23.0145 8.41987 23.9384 6.77617 23.9984C5.0807 24.0584 3.79939 22.4145 2.71222 20.9626C0.499051 17.9988 -1.19642 12.5392 1.08146 8.86741C2.20746 7.04353 4.2265 5.89161 6.41378 5.85561C8.07042 5.83161 9.64941 6.89954 10.6719 6.89954C11.6814 6.89954 13.5969 5.61563 15.603 5.80761C16.4442 5.84361 18.7998 6.11959 20.314 8.18346C20.1976 8.25545 17.5055 9.71935 17.5314 12.7552C17.5702 16.3789 20.9612 17.5908 21 17.6028C20.9612 17.6868 20.4564 19.3307 19.2139 20.9986ZM11.8238 1.79988C12.7686 0.803947 14.3346 0.0479968 15.6289 0C15.7971 1.40391 15.1888 2.81981 14.2828 3.82775C13.3898 4.84768 11.9144 5.63963 10.4648 5.53163C10.2707 4.15172 10.9954 2.71182 11.8238 1.79988Z" fill="black"/>
</svg>
