<svg width="24" height="24" viewBox="0 0 24 24" fill="none" xmlns="http://www.w3.org/2000/svg">
<path d="M14.7 6.3C14.7 5.47157 15.3716 4.8 16.2 4.8C17.0284 4.8 17.7 5.47157 17.7 6.3C17.7 7.12843 17.0284 7.8 16.2 7.8C15.3716 7.8 14.7 7.12843 14.7 6.3Z" fill="black"/>
<path fill-rule="evenodd" clip-rule="evenodd" d="M11.912 3.13637C11.1611 2.50293 10.0384 2.50293 9.28746 3.13637C8.53655 3.7698 8.16109 4.80345 8.16109 5.83709C8.16109 6.87074 8.53655 7.90438 9.28746 8.53782C10.0384 9.17125 11.1611 9.17125 11.912 8.53782C12.663 7.90438 13.0384 6.87074 13.0384 5.83709C13.0384 4.80345 12.663 3.7698 11.912 3.13637ZM10.5997 1.58334C11.8318 0.543477 13.6677 0.543477 14.8998 1.58334L18.4111 4.54512C19.6433 5.58498 19.6433 7.13543 18.4111 8.17529L14.8998 11.1371C13.6677 12.1769 11.8318 12.1769 10.5997 11.1371L7.08842 8.17529C5.85627 7.13543 5.85627 5.58498 7.08842 4.54512L10.5997 1.58334ZM4.54512 11.1371L1.58334 14.8998C0.543477 16.1319 0.543477 17.9678 1.58334 19.1999L4.54512 22.7112C5.58498 23.9433 7.13543 23.9433 8.17529 22.7112L11.1371 19.1999C12.1769 17.9678 12.1769 16.1319 11.1371 14.8998L8.17529 11.1371C7.13543 10.0972 5.58498 10.0972 4.54512 11.1371Z" fill="black"/>
</svg>
